<svg width="49" height="49" viewBox="0 0 49 49" fill="none" xmlns="http://www.w3.org/2000/svg">
<path d="M0 7C0 5.14348 0.737498 3.36301 2.05025 2.05025C3.36301 0.737498 5.14348 0 7 0H42C43.8565 0 45.637 0.737498 46.9497 2.05025C48.2625 3.36301 49 5.14348 49 7V42C49 43.8565 48.2625 45.637 46.9497 46.9497C45.637 48.2625 43.8565 49 42 49H7C5.14348 49 3.36301 48.2625 2.05025 46.9497C0.737498 45.637 0 43.8565 0 42V7ZM7 3.5C6.07174 3.5 5.1815 3.86875 4.52513 4.52513C3.86875 5.1815 3.5 6.07174 3.5 7V42C3.5 42.9283 3.86875 43.8185 4.52513 44.4749C5.1815 45.1312 6.07174 45.5 7 45.5H42C42.9283 45.5 43.8185 45.1312 44.4749 44.4749C45.1312 43.8185 45.5 42.9283 45.5 42V7C45.5 6.07174 45.1312 5.1815 44.4749 4.52513C43.8185 3.86875 42.9283 3.5 42 3.5H7ZM24.5 10.5C24.9641 10.5 25.4093 10.6844 25.7374 11.0126C26.0656 11.3408 26.25 11.7859 26.25 12.25V22.75H36.75C37.2141 22.75 37.6592 22.9344 37.9874 23.2626C38.3156 23.5907 38.5 24.0359 38.5 24.5C38.5 24.9641 38.3156 25.4093 37.9874 25.7374C37.6592 26.0656 37.2141 26.25 36.75 26.25H26.25V36.75C26.25 37.2141 26.0656 37.6592 25.7374 37.9874C25.4093 38.3156 24.9641 38.5 24.5 38.5C24.0359 38.5 23.5907 38.3156 23.2626 37.9874C22.9344 37.6592 22.75 37.2141 22.75 36.75V26.25H12.25C11.7859 26.25 11.3408 26.0656 11.0126 25.7374C10.6844 25.4093 10.5 24.9641 10.5 24.5C10.5 24.0359 10.6844 23.5907 11.0126 23.2626C11.3408 22.9344 11.7859 22.75 12.25 22.75H22.75V12.25C22.75 11.7859 22.9344 11.3408 23.2626 11.0126C23.5907 10.6844 24.0359 10.5 24.5 10.5Z" fill="black"/>
</svg>
