<svg width="70" height="70" viewBox="0 0 70 70" fill="none" xmlns="http://www.w3.org/2000/svg">
<path d="M59.0625 16.9531H49.7656L47.5508 10.7461C47.3978 10.3214 47.1173 9.95423 46.7478 9.69485C46.3783 9.43546 45.9378 9.29648 45.4863 9.29688H24.5137C23.5908 9.29688 22.7637 9.87793 22.4561 10.7461L20.2344 16.9531H10.9375C7.91602 16.9531 5.46875 19.4004 5.46875 22.4219V53.5938C5.46875 56.6152 7.91602 59.0625 10.9375 59.0625H59.0625C62.084 59.0625 64.5312 56.6152 64.5312 53.5938V22.4219C64.5312 19.4004 62.084 16.9531 59.0625 16.9531ZM59.6094 53.5938C59.6094 53.8945 59.3633 54.1406 59.0625 54.1406H10.9375C10.6367 54.1406 10.3906 53.8945 10.3906 53.5938V22.4219C10.3906 22.1211 10.6367 21.875 10.9375 21.875H23.7002L24.8691 18.6074L26.4346 14.2188H43.5586L45.124 18.6074L46.293 21.875H59.0625C59.3633 21.875 59.6094 22.1211 59.6094 22.4219V53.5938ZM35 26.25C28.957 26.25 24.0625 31.1445 24.0625 37.1875C24.0625 43.2305 28.957 48.125 35 48.125C41.043 48.125 45.9375 43.2305 45.9375 37.1875C45.9375 31.1445 41.043 26.25 35 26.25ZM35 43.75C31.377 43.75 28.4375 40.8105 28.4375 37.1875C28.4375 33.5645 31.377 30.625 35 30.625C38.623 30.625 41.5625 33.5645 41.5625 37.1875C41.5625 40.8105 38.623 43.75 35 43.75Z" fill="#F24E1E"/>
</svg>
