<svg width="57" height="62" viewBox="0 0 57 62" fill="none" xmlns="http://www.w3.org/2000/svg">
<path d="M21.875 59.0664V43.732C21.875 42.6602 22.9688 41.5664 24.0625 41.5664H32.8125C33.9063 41.5664 35 42.6602 35 43.7539V59.0664C35 59.6466 35.2305 60.203 35.6407 60.6132C36.0509 61.0234 36.6073 61.2539 37.1875 61.2539H54.6875C55.2677 61.2539 55.8241 61.0234 56.2343 60.6132C56.6445 60.203 56.875 59.6466 56.875 59.0664V28.4414C56.8755 28.154 56.8194 27.8692 56.7098 27.6035C56.6002 27.3377 56.4393 27.0962 56.2363 26.8927L50.3125 20.9733V6.56641C50.3125 5.98625 50.082 5.42985 49.6718 5.01961C49.2616 4.60938 48.7052 4.37891 48.125 4.37891H43.75C43.1698 4.37891 42.6134 4.60938 42.2032 5.01961C41.793 5.42985 41.5625 5.98625 41.5625 6.56641V12.2233L29.9863 0.64266C29.7831 0.438946 29.5417 0.277321 29.2759 0.167043C29.0101 0.0567647 28.7252 0 28.4375 0C28.1498 0 27.8649 0.0567647 27.5991 0.167043C27.3333 0.277321 27.092 0.438946 26.8888 0.64266L0.638754 26.8927C0.435746 27.0962 0.274841 27.3377 0.16524 27.6035C0.0556389 27.8692 -0.000509905 28.154 3.48904e-06 28.4414V59.0664C3.48904e-06 59.6466 0.230472 60.203 0.640707 60.6132C1.05094 61.0234 1.60734 61.2539 2.1875 61.2539H19.6875C20.2677 61.2539 20.8241 61.0234 21.2343 60.6132C21.6445 60.203 21.875 59.6466 21.875 59.0664Z" fill="black"/>
</svg>
