<svg width="66" height="59" viewBox="0 0 66 59" fill="none" xmlns="http://www.w3.org/2000/svg">
<path d="M59.8145 5.12561C58.1887 3.49981 56.2584 2.21032 54.134 1.33085C52.0097 0.451367 49.7328 -0.000862152 47.4336 1.23393e-06C45.1343 0.00086462 42.8578 0.454804 40.7341 1.33588C38.6104 2.21695 36.6811 3.50789 35.0565 5.13491L32.9358 7.28139L30.8328 5.13956L30.8192 5.12589C29.1941 3.50085 27.2649 2.21179 25.1417 1.33233C23.0185 0.452864 20.7429 0.000208286 18.4447 0.000208286C16.1466 0.000208286 13.871 0.452864 11.7478 1.33233C9.62455 2.21179 7.69536 3.50085 6.07033 5.12589L5.12561 6.07061C1.84374 9.3525 0 13.8037 0 18.445C0 23.0862 1.84374 27.5374 5.12561 30.8193L30.0594 55.7528L32.8751 58.703L32.9423 58.6357L33.0151 58.7086L35.6533 55.9251L60.7592 30.8189C64.0362 27.5344 65.8765 23.0842 65.8765 18.4445C65.8765 13.8049 64.0362 9.35469 60.7592 6.0702L59.8145 5.12561ZM57.665 27.7254L32.9423 52.4486L8.21901 27.7254C5.75761 25.2639 4.37482 21.9256 4.37482 18.4446C4.37482 14.9637 5.75761 11.6253 8.21901 9.16387L9.16387 8.21915C11.6241 5.75896 14.9604 4.37626 18.4397 4.37496C21.9189 4.37365 25.2563 5.75384 27.7184 8.21217L32.9264 13.5151L38.1592 8.21915C39.378 7.00037 40.8248 6.03358 42.4173 5.37398C44.0097 4.71438 45.7164 4.37489 47.44 4.37489C49.1636 4.37489 50.8703 4.71438 52.4627 5.37398C54.0551 6.03358 55.502 7.00037 56.7208 8.21915L57.6655 9.16374C60.1232 11.6272 61.5034 14.9649 61.5033 18.4447C61.5032 21.9244 60.1228 25.2621 57.665 27.7254Z" fill="black"/>
</svg>
